<?xml version="1.0" encoding="UTF-8"?>
<svg id="Layer_2" data-name="Layer 2" xmlns="http://www.w3.org/2000/svg" viewBox="0 0 478.26 478.26">
  <defs>
    <style>
      .cls-1 {
        fill: #231f20;
      }

      .cls-2 {
        fill: #fff;
        font-family: HelveticaNeueLTCom-Hv, 'Helvetica Neue LT Com';
        font-size: 66.96px;
      }

      .cls-3 {
        fill: #c6952f;
      }
    </style>
  </defs>
  <g id="Layer_1-2" data-name="Layer 1">
    <g>
      <circle class="cls-1" cx="239.13" cy="239.13" r="239.13"/>
      <g>
        <g>
          <g>
            <polygon class="cls-3" points="267.71 148.14 239.14 209.71 210.56 148.15 162.08 148.15 192.59 212.62 175.12 212.62 175.12 246.17 303.11 246.17 303.11 212.62 285.76 212.62 316.19 148.15 267.71 148.14"/>
            <polygon class="cls-3" points="175.12 289.87 215.2 289.87 215.2 330.12 263.07 330.12 263.07 289.87 303.11 289.87 303.11 256.33 175.12 256.33 175.12 289.87"/>
            <path class="cls-3" d="M156.85,211.64c.16-2.02-.04-13.6-.16-15.46-2.02-34.71-19.66-48.03-45.77-48.03H27.12v48.03h74.31c2.46.12,6.26.97,6.26,5.85v4.68c0,4.88-3.79,5.73-6.26,5.89H27.12v117.5h49.16v-67.97h8.6c3.55,0,3.96.93,4.97,3.23l30.03,64.75h53.85s-29.1-65.03-34.79-78.15c12.19-8.68,16.51-23.57,17.92-40.32Z"/>
            <g>
              <path class="cls-3" d="M400.69,212.61v57.6c-.25,4.2-1.74,10.78-10.4,10.78h-8.29c-8.66,0-10.23-6.58-10.48-10.78v-57.6h-50.38v60.39c0,15.94,0,57.12,46.52,57.12h36.95c46.52,0,46.52-41.17,46.52-57.12v-60.39h-50.46Z"/>
              <path class="cls-3" d="M404.62,148.15h-36.95c-38.53,0-45.16,29.26-46.32,48.03h129.59c-1.16-18.77-7.79-48.03-46.32-48.03Z"/>
            </g>
          </g>
          <g>
            <path class="cls-3" d="M100.59,131.71h20.97c29.15-31.87,71.06-51.9,117.55-51.9s88.41,20.02,117.56,51.9h21s47.4,0,47.4,0c-37.21-64.16-106.61-107.45-185.96-107.45S90.39,67.55,53.19,131.71h47.41Z"/>
            <path class="cls-3" d="M401.93,346.53s0,0,0,0h-45.25c-29.15,31.89-71.06,51.93-117.58,51.93s-88.41-20.04-117.56-51.93h-45.23s0,0,0,0h-23.15c37.2,64.17,106.6,107.46,185.93,107.46s148.77-43.29,185.97-107.46h-23.15Z"/>
          </g>
        </g>
        <text class="cls-2" transform="translate(149.63 432.78) rotate(16.84) scale(1.04 1)"><tspan x="0" y="0">C</tspan></text>
        <text class="cls-2" transform="translate(214.98 450.27) rotate(-.89) scale(1.04 1)"><tspan x="0" y="0">A</tspan></text>
        <text class="cls-2" transform="translate(278.05 448.11) rotate(-16.89) scale(1.04 1)"><tspan x="0" y="0">D</tspan></text>
        <text class="cls-2" transform="translate(339.7 426.02) rotate(-30.12) scale(1.04 1)"><tspan x="0" y="0"> </tspan></text>
      </g>
    </g>
  </g>
</svg>