<svg width="191" height="56" viewBox="0 0 191 56" fill="none" xmlns="http://www.w3.org/2000/svg">
<path d="M7.7871 37.1054L23.5068 6.24559C24.2977 4.69295 26.5183 4.69978 27.2997 6.25726L48.7356 48.9862C49.5794 50.6681 47.9821 52.5359 46.1896 51.9633L9.03397 40.0942C7.78575 39.6954 7.19234 38.273 7.7871 37.1054Z" fill="#021117"/>
<path d="M1.89061 49.5744L4.30057 44.5704C4.76666 43.6026 5.88167 43.1348 6.89874 43.4804L14.9319 46.2099C16.9709 46.9026 16.8047 49.8399 14.7005 50.2982L4.25738 52.5728C2.52742 52.9496 1.12237 51.1695 1.89061 49.5744Z" fill="#021117"/>
<path d="M78.555 12.05H85.71L97.23 44H91.11L88.455 36.44H75.81L73.155 44H67.035L78.555 12.05ZM86.745 31.445L82.155 17.945L77.52 31.445H86.745ZM100.022 19.97H105.422L105.647 26.63L105.152 26.54C105.512 24.26 106.187 22.595 107.177 21.545C108.167 20.495 109.547 19.97 111.317 19.97H113.522V24.92H111.272C110.012 24.92 108.977 25.1 108.167 25.46C107.387 25.82 106.787 26.39 106.367 27.17C105.977 27.95 105.782 28.94 105.782 30.14V44H100.022V19.97ZM119.333 46.295H122.393C123.173 46.295 123.743 46.175 124.103 45.935C124.493 45.695 124.808 45.29 125.048 44.72L125.678 43.055H124.013L115.463 19.97H121.403L127.478 37.655L133.193 19.97H139.178L129.773 46.52C129.263 48.02 128.513 49.1 127.523 49.76C126.533 50.42 125.168 50.75 123.428 50.75H119.333V46.295ZM141.803 39.23L155.663 24.425H142.298V19.97H162.458V24.74L148.418 39.545H162.818V44H141.803V39.23ZM177.505 44.54C175.135 44.54 173.065 44.03 171.295 43.01C169.525 41.96 168.145 40.49 167.155 38.6C166.195 36.71 165.715 34.505 165.715 31.985C165.715 29.495 166.195 27.305 167.155 25.415C168.145 23.495 169.51 22.025 171.25 21.005C173.02 19.955 175.06 19.43 177.37 19.43C179.65 19.43 181.645 19.94 183.355 20.96C185.095 21.98 186.43 23.465 187.36 25.415C188.32 27.365 188.8 29.66 188.8 32.3V33.605H171.7C171.79 35.675 172.345 37.25 173.365 38.33C174.415 39.41 175.81 39.95 177.55 39.95C178.84 39.95 179.905 39.665 180.745 39.095C181.585 38.525 182.185 37.7 182.545 36.62L188.44 36.98C187.81 39.32 186.52 41.165 184.57 42.515C182.62 43.865 180.265 44.54 177.505 44.54ZM182.815 29.735C182.695 27.845 182.155 26.42 181.195 25.46C180.235 24.47 178.96 23.975 177.37 23.975C175.81 23.975 174.52 24.47 173.5 25.46C172.51 26.45 171.91 27.875 171.7 29.735H182.815Z" fill="#021117"/>
</svg>
