<?xml version="1.0" encoding="UTF-8"?>
<svg id="Layer_2" data-name="Layer 2" xmlns="http://www.w3.org/2000/svg" viewBox="0 0 389.71 389.71">
  <defs>
    <style>
      .cls-1 {
        fill: #06668c;
      }

      .cls-2 {
        fill: #23718c;
      }

      .cls-3 {
        fill: #05586b;
      }

      .cls-4 {
        fill: #fff;
        stroke: #024c63;
        stroke-miterlimit: 10;
        stroke-width: 4px;
      }

      .cls-5 {
        fill: #257489;
      }
    </style>
  </defs>
  <g id="Layer_1-2" data-name="Layer 1">
    <circle class="cls-3" cx="194.86" cy="194.86" r="194.86"/>
    <circle class="cls-1" cx="194.86" cy="194.86" r="167.46"/>
    <circle class="cls-2" cx="194.86" cy="194.86" r="167.46"/>
    <circle class="cls-5" cx="194.86" cy="194.86" r="167.46"/>
    <path class="cls-4" d="M144.42,194.96c0-1.17,.03-2.36,.1-3.53,0-.04,0-.08,0-.12h61.72l-3.52,7.3h-58.2c-.07-1.22-.1-2.44-.1-3.65m125.83,74.28l-.39-.86-.39-.86-6.03-13.34-4.5-9.96-.62-1.36-.62-1.36-.8-1.77-1.51,1.22-1.16,.94-1.16,.94c-.89,.72-1.78,1.42-2.73,2.15-.17,.13-.33,.25-.5,.37l-.38,.28c-.62,.47-1.23,.92-1.85,1.36-.23,.17-.46,.33-.69,.49l-.35,.25c-.56,.39-1.11,.77-1.67,1.14-.35,.23-.7,.46-1.05,.68l-.06,.04c-.54,.34-1.07,.68-1.61,1.01-.38,.23-.75,.46-1.13,.68-.54,.31-1.08,.62-1.62,.92-.37,.21-.75,.41-1.12,.61-.56,.3-1.12,.58-1.68,.85l-.32,.16c-.27,.13-.51,.25-.76,.37-.62,.29-1.24,.56-1.87,.83l-.4,.18c-.2,.09-.36,.16-.52,.22-1,.41-1.93,.76-2.83,1.08-.72,.25-1.51,.51-2.44,.79-.17,.05-.34,.1-.5,.15l-.23,.06c-.61,.18-1.23,.34-1.85,.5l-.2,.05c-.2,.05-.38,.1-.56,.14-.97,.23-1.79,.41-2.57,.55-3.95,.75-8,1.11-12.39,1.11-.82,0-1.68-.02-2.63-.06-.16,0-.32-.02-.49-.03l-.35-.02c-.61-.03-1.2-.07-1.79-.12-.29-.02-.57-.05-.86-.08h-.11c-.55-.06-1.1-.12-1.65-.19-.33-.04-.65-.08-.97-.13-.56-.08-1.13-.17-1.69-.26l-.3-.05c-.22-.03-.4-.06-.58-.1-.68-.12-1.36-.26-2.03-.4l-.28-.06-.24-.05c-.78-.17-1.62-.38-2.46-.6-.11-.03-.21-.06-.32-.09l-.34-.1c-.61-.17-1.2-.34-1.79-.52-.22-.07-.45-.14-.67-.21l-.22-.07c-.52-.17-1.04-.34-1.56-.52-.3-.11-.61-.22-.91-.33-.51-.19-1.02-.39-1.53-.59l-.22-.09c-.23-.09-.43-.17-.64-.25-.57-.23-1.13-.48-1.68-.73l-.31-.13c-.13-.06-.24-.1-.34-.15-.78-.36-1.54-.73-2.27-1.1l-.19-.1-.23-.12c-.62-.32-1.22-.64-1.81-.97-.16-.09-.31-.18-.47-.27l-.28-.16c-.49-.28-.97-.56-1.44-.85-.27-.17-.54-.33-.81-.51-.46-.29-.91-.58-1.36-.88l-.07-.05c-.26-.17-.49-.32-.71-.48-.47-.32-.94-.66-1.4-.99l-.27-.2c-.14-.1-.27-.19-.39-.29-.74-.55-1.39-1.06-1.99-1.54-.7-.57-1.44-1.2-2.32-1.98-.19-.17-.38-.34-.57-.51-.88-.8-1.58-1.47-2.22-2.1-1.08-1.08-2.13-2.21-3.13-3.36-.5-.58-1-1.17-1.48-1.77-.83-1.03-1.67-2.13-2.47-3.28l-.06-.09c-.79-1.13-1.57-2.31-2.29-3.49-.32-.52-.64-1.06-.95-1.6h69.03l.4-.88,.31-.68,.31-.68,6.82-15.1,2.69-5.95,.73-1.63,.73-1.62,.95-2.11h-.03l7.35-16.13,.74-1.62,.74-1.61,.96-2.1h-.06s4.12-9.11,4.12-9.11l.74-1.63,.72-1.59,.93-2.06-2.26-.05-1.74-.04-1.77-.04h-92.41c11.47-19.88,33.25-32.59,56.17-32.59,16.26,0,28.97,4.93,43.87,17.03l1.16,.94,1.16,.94,1.51,1.22,.8-1.77,.62-1.36,.62-1.36,10.52-23.3,.39-.86,.39-.86,.5-1.11-.99-.72-.76-.55-.76-.55c-18.8-13.68-37.55-20.05-59.02-20.05s-40.52,6.49-57.29,18.78c-15.94,11.68-27.79,27.63-34.31,46.17h-33.96l.23,1.7,.17,1.31,.17,1.31,2.8,21.05,.13,1,.13,1,.17,1.3h24.68c-.12,2.55-.14,4.96-.07,7.3h-19.3s-1.32,0-1.32,0h-3.03l.23,1.7,.17,1.31,.17,1.31,2.8,21.05,.13,1,.13,1,.17,1.3h25.35c6.52,18.55,18.37,34.49,34.31,46.17,16.77,12.28,36.58,18.78,57.29,18.78s40.22-6.37,59.02-20.05l.76-.55,.76-.55,.99-.72-.5-1.11Z"/>
  </g>
</svg>