<?xml version="1.0" encoding="UTF-8"?>
<svg id="Layer_2" data-name="Layer 2" xmlns="http://www.w3.org/2000/svg" viewBox="0 0 389.17 389.17">
  <defs>
    <style>
      .cls-1 {
        fill: #135e35;
      }

      .cls-2 {
        fill: #146639;
      }

      .cls-3 {
        fill: #fff;
      }

      .cls-4 {
        fill: #228d57;
      }
    </style>
  </defs>
  <g id="Layer_1-2" data-name="Layer 1">
    <circle class="cls-2" cx="194.59" cy="194.59" r="194.59"/>
    <circle class="cls-4" cx="194.59" cy="194.59" r="167.23"/>
    <g>
      <path class="cls-3" d="M180.64,316.92v-28.21l-1.78-.2c-1.41-.15-2.79-.3-4.14-.43-2.9-.3-5.64-.58-8.38-.96-13.34-1.89-24.92-5.26-35.4-10.33-.69-.33-.85-.5-.88-.54,0,0-.03-.24,.15-.89,2.01-7.5,3.93-15.16,5.79-22.56,.63-2.5,1.25-4.99,1.88-7.49,1.79,.69,3.57,1.38,5.33,2.08,5.31,2.09,10.8,4.24,16.33,5.93,8.64,2.64,17.02,3.97,24.93,3.97,3.94,0,7.86-.33,11.65-.98,3.96-.68,7.89-2.03,11.34-3.91,5.34-2.91,8.92-7.76,9.81-13.32,.92-5.7-1.02-11.62-5.33-16.23-4.94-5.28-11.1-8.21-16.48-10.38-3.94-1.59-7.96-3.12-11.86-4.59-4.93-1.87-10.03-3.81-14.97-5.87-8.34-3.48-15.88-8.13-22.4-13.83-9.6-8.4-14.85-20.45-14.79-33.95,.06-14.2,6.21-27.92,16.45-36.71,8.05-6.91,17.7-11.59,29.48-14.28,.62-.14,1.24-.29,1.96-.46l2.7-.65v-28.16h25.35v26.45l1.93,.07c15.4,.52,28.94,3.52,41.34,9.15l-7.88,30.11-.57-.25c-1.87-.82-3.68-1.61-5.5-2.37-11.02-4.64-22.35-7-33.69-7-2.44,0-4.91,.11-7.36,.33-4.81,.42-9.63,1.83-13.58,3.97-5.06,2.74-8.27,7.33-8.82,12.6-.57,5.45,1.74,10.8,6.34,14.7,7.06,5.98,15.51,9.28,23.68,12.47,1.78,.69,3.52,1.36,5.27,2.02,9.16,3.5,18.64,7.12,27.03,12.55,12.55,8.13,19.85,18.13,22.29,30.58,5.62,28.6-7.76,52.56-34.92,62.53-4.47,1.64-9.07,2.74-12.97,3.6-2.75,.6-3.91,2.07-3.88,4.91,.05,6.19,.04,12.48,.04,18.57v7.98h-25.48Z"/>
      <path class="cls-1" d="M205.37,75.96v26.39l3.86,.13c14.49,.49,27.31,3.21,39.05,8.29l-3.07,11.74-3.79,14.46c-1.33-.58-2.62-1.14-3.94-1.7-11.26-4.75-22.86-7.16-34.47-7.16-2.5,0-5.03,.11-7.53,.33-5.08,.45-10.17,1.94-14.35,4.2-5.65,3.06-9.24,8.21-9.86,14.15-.64,6.11,1.93,12.1,7.03,16.43,7.31,6.2,15.92,9.55,24.29,12.82,1.74,.68,3.49,1.35,5.24,2.01,9.48,3.62,18.44,7.04,26.66,12.36,12.07,7.82,19.08,17.4,21.42,29.29,2.65,13.47,.91,26.22-5.03,36.85-5.94,10.63-15.83,18.73-28.62,23.42-4.35,1.6-8.87,2.68-12.71,3.52-3.65,.8-5.49,3.12-5.45,6.89,.05,6.18,.04,12.48,.04,18.56,0,1.99,0,3.98,0,5.97h-21.47v-28.01l-3.56-.39c-1.41-.16-2.8-.3-4.16-.44-2.88-.29-5.6-.57-8.31-.95-12.92-1.83-24.15-5.07-34.31-9.91,1.94-7.28,3.8-14.69,5.6-21.86,.45-1.79,.9-3.59,1.35-5.38,1.09,.42,2.16,.85,3.22,1.26,5.34,2.1,10.87,4.27,16.47,5.98,8.83,2.69,17.41,4.06,25.51,4.06,4.05,0,8.08-.34,11.99-1.01,4.18-.72,8.31-2.14,11.96-4.13,5.89-3.21,9.83-8.59,10.83-14.76,1.02-6.32-1.11-12.85-5.84-17.92-5.23-5.6-11.94-8.75-17.2-10.87-3.96-1.59-7.99-3.13-11.9-4.61-4.92-1.87-10-3.8-14.91-5.84-8.14-3.4-15.5-7.94-21.85-13.49-9.16-8.01-14.17-19.53-14.11-32.44,.06-13.63,5.95-26.79,15.75-35.21,7.8-6.7,17.16-11.23,28.63-13.85,.62-.14,1.24-.29,1.96-.47l1.18-.28,3.07-.73v-27.74h21.35m4-4h-29.35v28.58c-1.26,.3-2.18,.53-3.11,.74-11.22,2.57-21.48,7.11-30.34,14.72-21.15,18.16-23.91,54.24-1.67,73.69,6.89,6.02,14.59,10.69,22.94,14.17,8.87,3.7,17.94,6.88,26.85,10.47,5.81,2.34,11.39,5.2,15.77,9.89,8.01,8.57,6.25,20.86-3.98,26.43-3.29,1.79-7.03,3.07-10.72,3.7-3.78,.65-7.56,.95-11.31,.95-8.23,0-16.37-1.45-24.35-3.89-7.91-2.41-15.55-5.73-23.57-8.73-.06,.18-.24,.66-.36,1.15-2.62,10.34-5.16,20.71-7.92,31.02-.57,2.13,.04,2.9,1.8,3.75,11.43,5.52,23.51,8.74,35.99,10.51,4.08,.58,8.19,.92,12.59,1.41v28.42h29.47c0-1.23,0-2.27,0-3.32,0-8.42,.05-16.83-.03-25.25-.02-1.79,.41-2.53,2.31-2.94,4.47-.98,8.95-2.1,13.24-3.67,27.92-10.25,41.96-35.42,36.2-64.79-2.8-14.24-11.39-24.25-23.17-31.88-10.15-6.57-21.49-10.4-32.62-14.74-8.15-3.18-16.35-6.37-23.16-12.15-8.35-7.08-7.47-18.81,2.14-24.01,3.85-2.08,8.44-3.35,12.8-3.73,2.41-.21,4.8-.32,7.18-.32,11.3,0,22.3,2.37,32.91,6.84,2.68,1.13,5.34,2.31,8.18,3.54,3.01-11.49,5.94-22.7,8.9-33.99-13.91-6.61-28.38-9.53-43.64-10.04v-26.52h0Z"/>
    </g>
  </g>
</svg>