<svg width="145" height="37" viewBox="0 0 145 37" fill="none" xmlns="http://www.w3.org/2000/svg">
    <path d="M6.39971 25.0291L17.6717 2.90078C18.2388 1.78744 19.8311 1.79233 20.3914 2.90913L35.7622 33.5483C36.3672 34.7544 35.2219 36.0937 33.9366 35.6831L7.29379 27.1722C6.39875 26.8863 5.97323 25.8663 6.39971 25.0291Z" fill="#1F333B"/>
    <path d="M2.17209 33.97L3.90017 30.3818C4.23438 29.6878 5.03391 29.3524 5.76321 29.6002L11.5235 31.5574C12.9856 32.0542 12.8663 34.1604 11.3575 34.489L3.86919 36.12C2.62871 36.3902 1.62121 35.1138 2.17209 33.97Z" fill="#1F333B"/>
    <path d="M55.4819 4.81578C55.5216 4.70585 55.6259 4.63257 55.7428 4.63257H61.7463C61.8632 4.63257 61.9675 4.70585 62.0072 4.81578L71.3782 30.8057C71.4433 30.9864 71.3094 31.177 71.1173 31.177H66.1751C66.0575 31.177 65.9527 31.1028 65.9136 30.9918L63.9504 25.4177C63.9113 25.3068 63.8065 25.2325 63.6889 25.2325H53.764C53.6458 25.2325 53.5406 25.3075 53.502 25.4192L51.5748 30.9904C51.5362 31.1021 51.431 31.177 51.3128 31.177H46.3717C46.1797 31.177 46.0458 30.9864 46.1109 30.8057L55.4819 4.81578ZM62.0029 20.8209C62.1928 20.8209 62.3265 20.6344 62.2655 20.4546L59.0245 10.8986C58.9395 10.6481 58.5854 10.6475 58.4996 10.8978L55.2252 20.4538C55.1635 20.6338 55.2972 20.8209 55.4874 20.8209H62.0029Z" fill="#1F333B"/>
    <path d="M77.6648 11.3621C77.8144 11.3621 77.9374 11.4866 77.9409 11.6361C78.0888 17.8084 76.1836 16.312 79.3539 12.7454C80.1764 11.8232 81.3353 11.3621 82.8308 11.3621H84.3855C84.5386 11.3621 84.6627 11.4863 84.6627 11.6394V15.0479C84.6627 15.201 84.5386 15.3251 84.3855 15.3251H82.7934C81.7217 15.3251 80.8493 15.4996 80.1764 15.8485C79.5034 16.1975 79.0049 16.7209 78.6809 17.4188C78.3818 18.1166 78.2323 18.989 78.2323 20.0358V30.8997C78.2323 31.0529 78.1081 31.177 77.955 31.177H73.2754C73.1223 31.177 72.9981 31.0529 72.9981 30.8997V11.6394C72.9981 11.4863 73.1223 11.3621 73.2754 11.3621H77.6648Z" fill="#1F333B"/>
    <path d="M90.2963 11.3621C90.4137 11.3621 90.5183 11.436 90.5576 11.5466L95.3115 24.9344C95.3993 25.1816 95.7494 25.18 95.8349 24.932L100.447 11.5491C100.486 11.4372 100.591 11.3621 100.709 11.3621H105.128C105.319 11.3621 105.453 11.5523 105.389 11.733L97.7077 33.1585C97.2591 34.4047 96.5986 35.3144 95.7262 35.8877C94.8788 36.4859 93.7572 36.785 92.3614 36.785H89.2365C89.0834 36.785 88.9593 36.6608 88.9593 36.5077V33.174C88.9593 33.0209 89.0834 32.8968 89.2365 32.8968H91.4268C92 32.8968 92.4487 32.7971 92.7727 32.5977C93.1216 32.3983 93.3958 32.0494 93.5952 31.5509L93.9665 30.6226C94.0394 30.4404 93.9052 30.2423 93.7091 30.2423H92.8144C92.6992 30.2423 92.5961 30.1712 92.5552 30.0636L85.5878 11.7379C85.5188 11.5565 85.6528 11.3621 85.847 11.3621H90.2963Z" fill="#1F333B"/>
    <path d="M113.467 26.7423C113.294 26.9176 113.418 27.214 113.664 27.214H124.427C124.58 27.214 124.705 27.3382 124.705 27.4913V30.8997C124.705 31.0529 124.58 31.177 124.427 31.177H107.186C107.033 31.177 106.909 31.0529 106.909 30.8997V27.0279C106.909 26.9555 106.937 26.8859 106.988 26.8341L117.776 15.7962C117.948 15.6206 117.823 15.3251 117.578 15.3251H107.747C107.594 15.3251 107.469 15.201 107.469 15.0479V11.6394C107.469 11.4863 107.594 11.3621 107.747 11.3621H124.166C124.319 11.3621 124.443 11.4863 124.443 11.6394V15.4733C124.443 15.546 124.414 15.6159 124.363 15.6677L113.467 26.7423Z" fill="#1F333B"/>
    <path d="M125.395 21.2696C125.395 19.2008 125.807 17.3938 126.629 15.8485C127.452 14.2783 128.623 13.0695 130.143 12.222C131.664 11.3497 133.421 10.9135 135.415 10.9135C137.209 10.9135 138.83 11.3248 140.275 12.1473C141.721 12.9698 142.855 14.1786 143.677 15.7738C144.5 17.3689 144.911 19.3005 144.911 21.5687V22.3756C144.911 22.5287 144.787 22.6529 144.634 22.6529H131.187C131.027 22.6529 130.899 22.7883 130.915 22.9477C131.048 24.3543 131.477 25.4773 132.2 26.3168C132.997 27.1891 134.069 27.6253 135.415 27.6253C136.262 27.6253 137.035 27.401 137.733 26.9523C138.401 26.5144 138.91 25.9381 139.258 25.2232C139.31 25.1178 139.419 25.0511 139.536 25.0593L144.299 25.3948C144.477 25.4074 144.598 25.584 144.537 25.7528C143.915 27.4914 142.818 28.8882 141.247 29.9432C139.577 31.0648 137.633 31.6256 135.415 31.6256C133.421 31.6256 131.664 31.2019 130.143 30.3545C128.623 29.4821 127.452 28.2733 126.629 26.728C125.807 25.1578 125.395 23.3383 125.395 21.2696ZM139.259 19.3629C139.423 19.3629 139.551 19.2213 139.53 19.0588C139.351 17.6921 138.902 16.6718 138.181 15.9981C137.434 15.2753 136.512 14.9139 135.415 14.9139C134.169 14.9139 133.147 15.3127 132.349 16.1102C131.635 16.8245 131.176 17.805 130.973 19.0518C130.946 19.2164 131.076 19.3629 131.243 19.3629H139.259Z" fill="#1F333B"/>
</svg>
