<svg width="800" height="800" xmlns="http://www.w3.org/2000/svg" version="1.1" xml:space="preserve">
 <g>
  <title>Layer 1</title>
  <g id="Group_5_Copy">
   <g id="Group_3">
    <g id="Group">
     <path id="Fill_1_Copy_2" class="st0" d="m17.21336,639.46277c-3.6,6.5 -1.3,14.8 5.3,18.4c3.1,1.7 6.7,2.1 10.1,1.2l186,-50.3c7.2,-1.9 11.5,-9.3 9.6,-16.6c-1.2,-4.7 -4.9,-8.3 -9.6,-9.6l-137.6,-36.5c-6,-1.6 -12.3,1.1 -15.3,6.5l-48.5,86.9z" fill="#1E88E5"/>
     <path id="Fill_2_Copy_4" class="st0" d="m98.91336,489.76277c-3.7,6.5 -1.4,14.8 5.1,18.4c1,0.6 2.1,1 3.2,1.3l465.2,122.9c7.2,1.9 14.6,-2.4 16.5,-9.7c0.9,-3.5 0.4,-7.2 -1.4,-10.3l-271.8,-465.1c-3.8,-6.4 -12.1,-8.6 -18.5,-4.8c-2.1,1.2 -3.8,2.9 -4.9,5l-193.4,342.3z" fill="#1E88E5"/>
     <path id="Fill_2_Copy_5" class="st0" d="m430.81336,239.66277c-2.4,4.2 -2.3,9.4 0.1,13.5l202.7,342.7c1.9,3.1 4.9,5.4 8.4,6.2l125.7,31c7.3,1.8 14.6,-2.6 16.4,-9.9c0.8,-3.4 0.3,-7.1 -1.5,-10.1l-275.9,-466c-3.8,-6.4 -12.1,-8.5 -18.5,-4.7c-2,1.2 -3.7,2.9 -4.9,5l-52.5,92.3z" fill="#1E88E5"/>
    </g>
   </g>
  </g>
 </g>

</svg>