<?xml version="1.0" encoding="utf-8"?>
<!-- Generator: Adobe Illustrator 26.5.0, SVG Export Plug-In . SVG Version: 6.00 Build 0)  -->
<svg version="1.1" id="Layer_1" xmlns="http://www.w3.org/2000/svg" xmlns:xlink="http://www.w3.org/1999/xlink" x="0px" y="0px"
	 viewBox="0 0 1366 768" style="enable-background:new 0 0 1366 768;" xml:space="preserve">
<style type="text/css">
	.st0{fill:#0E273B;}
</style>
<g id="Group_5_Copy" transform="translate(-1 1)">
	<g id="Group_3">
		<g id="Group">
			<path id="Fill_1_Copy_2" class="st0" d="M296.3,612.9c-3.6,6.5-1.3,14.8,5.3,18.4c3.1,1.7,6.7,2.1,10.1,1.2l186-50.3
				c7.2-1.9,11.5-9.3,9.6-16.6c-1.2-4.7-4.9-8.3-9.6-9.6l-137.6-36.5c-6-1.6-12.3,1.1-15.3,6.5L296.3,612.9z"/>
			<path id="Fill_2_Copy_4" class="st0" d="M378,463.2c-3.7,6.5-1.4,14.8,5.1,18.4c1,0.6,2.1,1,3.2,1.3l465.2,122.9
				c7.2,1.9,14.6-2.4,16.5-9.7c0.9-3.5,0.4-7.2-1.4-10.3L594.8,120.7c-3.8-6.4-12.1-8.6-18.5-4.8c-2.1,1.2-3.8,2.9-4.9,5L378,463.2z
				"/>
			<path id="Fill_2_Copy_5" class="st0" d="M709.9,213.1c-2.4,4.2-2.3,9.4,0.1,13.5l202.7,342.7c1.9,3.1,4.9,5.4,8.4,6.2l125.7,31
				c7.3,1.8,14.6-2.6,16.4-9.9c0.8-3.4,0.3-7.1-1.5-10.1l-275.9-466c-3.8-6.4-12.1-8.5-18.5-4.7c-2,1.2-3.7,2.9-4.9,5L709.9,213.1z"
				/>
		</g>
	</g>
</g>
</svg>
