<svg width="1080" height="999" viewBox="0 0 1080 999" fill="none" xmlns="http://www.w3.org/2000/svg">
<path d="M139.877 684.547L507.9 19.5724C521.705 -5.37035 560.463 -5.26071 574.101 19.7596L1075.95 940.493C1090.68 967.513 1062.8 997.518 1031.51 988.32L161.64 732.56C139.853 726.155 129.496 703.304 139.877 684.547Z" fill="url(#paint0_linear_27_668)"/>
<path d="M3.7568 949.942L71.3618 820.74C79.4969 805.193 98.9582 797.678 116.71 803.23L342.06 873.703C377.648 884.833 374.746 932.019 338.021 939.382L45.0661 998.11C14.8716 1004.16 -9.65196 975.567 3.7568 949.942Z" fill="url(#paint1_linear_27_668)"/>
<defs>
<linearGradient id="paint0_linear_27_668" x1="540" y1="0.929687" x2="540" y2="998.93" gradientUnits="userSpaceOnUse">
<stop stop-color="#57717B"/>
<stop offset="1" stop-color="#1F333B"/>
</linearGradient>
<linearGradient id="paint1_linear_27_668" x1="540" y1="0.929687" x2="540" y2="998.93" gradientUnits="userSpaceOnUse">
<stop stop-color="#57717B"/>
<stop offset="1" stop-color="#1F333B"/>
</linearGradient>
</defs>
</svg>
