<?xml version="1.0" encoding="UTF-8"?>
<svg id="Layer_1" data-name="Layer 1" xmlns="http://www.w3.org/2000/svg" viewBox="0 0 1024 1024">
  <defs>
    <style>
      .cls-1 {
        fill: #af171f;
      }

      .cls-1, .cls-2, .cls-3 {
        stroke-width: 0px;
      }

      .cls-2 {
        fill: #fff;
      }

      .cls-3 {
        fill: #c73b3c;
      }

      .cls-4 {
        opacity: .6;
      }
    </style>
  </defs>
  <circle class="cls-1" cx="512" cy="512" r="512"/>
  <circle class="cls-3" cx="512" cy="512" r="440.01"/>
  <g>
    <path class="cls-2" d="m335.07,422.23s-16.37,23.15,5.08,53.07c0,0,3.39-15.24,37.26-15.24h40.65c38.39,0,67.19-36.7,49.12-74.53,0,0,27.1,2.82,36.14-14.12,9.03-16.94-.56-23.71-14.12-23.71h-68.32c0,12.14-23.15,13.83-23.15,0h-38.39s-28.8,0-29.36,24.28c0,0,6.49-3.95,12.99-4.52v6.49s-7.9,1.41-11.57,3.39c-3.67,1.98-9.03,7.34-3.95,21.17,5.08,13.83,7.06,18.63,7.06,18.63,0,0,8.19-7.06,21.46-7.06h15.53c27.67,0,22.58,26.82-5.08,26.82s-31.34-14.68-31.34-14.68Z"/>
    <path class="cls-2" d="m479.33,394.28s9.32.56,16.09-5.36c0,0,61.26,47.71-29.64,143.69-90.9,95.98-20.61,158.09-20.61,158.09,0,0-16.37,15.81-7.06,46.58,0,0-37.81-21.36-66.72-57.59-41.81-52.39-67.34-132.56,47.43-196.49,0,0,75.75-38.11,60.51-88.93Z"/>
    <path class="cls-2" d="m385.7,338.66s12.23-21.83,40.65-21.83c22.4,0,27.48-11.48,27.48-11.48,0,0,9.79-18.63,59.09-18.63,45.19,0,75.66,15.06,100.32,35.19,0,0-66.44-41.22-131.93,16.75h-95.61Z"/>
    <path class="cls-2" d="m661.98,476.81c-1.88-68.13-54.58-141.15-167.88-137.01,110.66-93.73,302.63,115.56,144.54,225.47,0,0,26.44-37.71,23.34-88.46Z"/>
    <path class="cls-2" d="m511.04,347.32c138.14-4.14,187.45,161.48,98.24,236.01l-89.59,43.29s-11.67-37.64,31.62-81.68c43.29-44.04,85.07-126.47-34.63-180.68,0,0,2.26-11.29-5.65-16.94Z"/>
    <path class="cls-2" d="m503.89,384.59s6.78-6.4,9.03-11.67c102.76,42.91,86.57,115.56,25.22,176.54-37.64,38.77-25.97,80.55-25.97,80.55,0,0-45.92,28.61-61.73,53.45,0,0-66.45-56.6,25.6-150.56,90.34-92.22,27.85-148.31,27.85-148.31Z"/>
  </g>
  <g>
    <g>
      <path class="cls-2" d="m873.65,491.9c-3.86,5.26-18.52,1.06-32.76-9.38-14.23-10.44-20.55-26.02-18.79-28.43,1.79-2.45,18.52-1.06,32.76,9.38,14.23,10.44,22.64,23.17,18.79,28.43Z"/>
      <path class="cls-2" d="m908.46,430.98c2.46.96,5.53,16.84-.68,32.69-6.21,15.86-15.02,27-21.82,24.73-5.47-1.83-4.7-16.67,1.52-32.52,6.21-15.86,18.48-25.88,20.98-24.9Z"/>
    </g>
    <g>
      <path class="cls-2" d="m865.87,435.75c-3,5.48-17.46,3.35-32.29-4.77-14.84-8.12-22.8-22.11-21.43-24.62,1.39-2.55,17.46-3.35,32.29,4.77,14.83,8.12,24.43,19.14,21.43,24.62Z"/>
      <path class="cls-2" d="m891.22,373.5c2.46.6,7.38,15.29,3.48,31.13-3.9,15.84-10.85,27.54-17.59,26.24-5.43-1.05-6.57-15.23-2.67-31.08,3.9-15.84,14.28-26.91,16.78-26.29Z"/>
    </g>
    <g>
      <path class="cls-2" d="m851.12,384.86c-2.13,5.58-16.1,5.43-31.21-.34-15.1-5.77-24.47-17.99-23.49-20.55.99-2.6,16.1-5.43,31.21.34,15.1,5.77,25.62,14.96,23.49,20.55Z"/>
      <path class="cls-2" d="m867.07,322.61c2.4.25,8.97,13.53,7.33,29.04-1.64,15.51-6.71,27.49-13.26,27.13-5.28-.29-8.19-13.58-6.56-29.09,1.64-15.51,10.04-27.34,12.49-27.08Z"/>
    </g>
    <g>
      <path class="cls-2" d="m830.13,338.98c-1.29,5.55-14.52,7.22-29.54,3.72-15.02-3.5-25.46-13.84-24.86-16.38.6-2.58,14.52-7.22,29.54-3.72,15.02,3.5,26.16,10.83,24.86,16.38Z"/>
      <path class="cls-2" d="m837.16,278.07c2.31-.07,10.23,11.63,10.69,26.5.46,14.87-2.78,26.86-9.03,27.37-5.03.41-9.5-11.78-9.96-26.65-.46-14.87,5.95-27.14,8.3-27.22Z"/>
    </g>
    <g>
      <path class="cls-2" d="m803.62,297.93c-.52,5.4-12.79,8.64-27.4,7.24-14.62-1.4-25.77-9.84-25.53-12.31.24-2.51,12.79-8.64,27.4-7.24,14.62,1.4,26.05,6.91,25.53,12.31Z"/>
      <path class="cls-2" d="m802.54,239.58c2.17-.36,11.12,9.68,13.43,23.65,2.31,13.98.77,25.69-5.06,26.96-4.69,1.02-10.45-9.91-12.77-23.89-2.31-13.98,2.19-26.36,4.39-26.73Z"/>
    </g>
    <g>
      <path class="cls-2" d="m772.69,261.64c.17,5.15-10.99,9.69-24.92,10.15-13.93.46-25.46-6.14-25.53-8.5-.08-2.39,10.99-9.69,24.92-10.15,13.93-.45,25.37,3.35,25.53,8.5Z"/>
      <path class="cls-2" d="m764.6,206.82c2-.6,11.65,7.76,15.52,20.64,3.87,12.88,3.84,24.1-1.49,26-4.3,1.53-11.05-8.06-14.92-20.94-3.87-12.88-1.14-25.09.89-25.7Z"/>
    </g>
    <g>
      <path class="cls-2" d="m738.59,230.32c.75,4.82-9.21,10.38-22.25,12.41-13.04,2.04-24.63-2.83-24.98-5.04-.35-2.24,9.21-10.38,22.25-12.41,13.04-2.04,24.22.22,24.98,5.04Z"/>
      <path class="cls-2" d="m724.66,179.74c1.81-.79,11.84,5.95,16.97,17.61,5.13,11.66,6.39,22.2,1.6,24.6-3.86,1.93-11.31-6.3-16.44-17.96-5.13-11.66-3.97-23.44-2.13-24.25Z"/>
    </g>
    <g>
      <path class="cls-2" d="m702.43,204.02c1.24,4.43-7.49,10.74-19.49,14.08-12,3.35-23.4.06-23.96-1.97-.58-2.06,7.49-10.74,19.49-14.08,12-3.35,22.73-2.46,23.96,1.97Z"/>
      <path class="cls-2" d="m683.8,158.14c1.61-.94,11.75,4.27,17.84,14.63,6.09,10.36,8.44,20.11,4.21,22.89-3.4,2.24-11.3-4.66-17.39-15.02-6.09-10.36-6.3-21.54-4.67-22.5Z"/>
    </g>
    <g>
      <path class="cls-2" d="m665.26,182.71c1.63,4.01-5.86,10.83-16.71,15.23-10.86,4.4-21.86,2.54-22.6.71-.76-1.87,5.86-10.83,16.71-15.23,10.86-4.4,20.98-4.72,22.6-.71Z"/>
      <path class="cls-2" d="m642.97,141.82c1.4-1.05,11.44,2.74,18.23,11.78,6.79,9.03,10.02,17.89,6.37,20.94-2.94,2.45-11.05-3.15-17.84-12.19-6.79-9.03-8.18-19.45-6.75-20.53Z"/>
    </g>
    <g>
      <path class="cls-2" d="m628.06,166.3c1.94,3.56-4.31,10.7-13.95,15.94-9.64,5.24-20.08,4.67-20.96,3.04-.9-1.66,4.31-10.7,13.95-15.94,9.64-5.24,19.03-6.6,20.96-3.04Z"/>
      <path class="cls-2" d="m603.02,130.6c1.19-1.13,10.93,1.35,18.2,9.04,7.27,7.69,11.21,15.6,8.13,18.82-2.48,2.59-10.62-1.77-17.89-9.47-7.27-7.69-9.66-17.25-8.44-18.39Z"/>
    </g>
    <g>
      <path class="cls-2" d="m591.78,154.68c2.18,3.09-2.84,10.37-11.2,16.27-8.36,5.89-18.09,6.49-19.08,5.08-1.01-1.44,2.84-10.37,11.2-16.27,8.36-5.89,16.91-8.17,19.08-5.08Z"/>
      <path class="cls-2" d="m564.73,124.32c.98-1.17,10.27.07,17.84,6.41,7.57,6.34,12.07,13.23,9.56,16.55-2.02,2.67-10.02-.49-17.59-6.83-7.57-6.34-10.81-14.93-9.81-16.12Z"/>
    </g>
    <g>
      <path class="cls-2" d="m558.36,147.67c2.36,2.59-1.4,9.87-8.4,16.27-7,6.4-15.88,8.09-16.96,6.9-1.1-1.2,1.4-9.87,8.4-16.27,7-6.4,14.6-9.49,16.96-6.9Z"/>
      <path class="cls-2" d="m529.92,122.9c.77-1.19,9.46-1.14,17.16,3.81,7.7,4.95,12.65,10.76,10.73,14.11-1.54,2.69-9.28.72-16.98-4.23-7.7-4.95-11.69-12.47-10.91-13.68Z"/>
    </g>
  </g>
  <g>
    <g>
      <path class="cls-2" d="m150.35,532.1c3.86-5.26,18.52-1.06,32.76,9.38,14.23,10.44,20.55,26.02,18.79,28.43-1.79,2.45-18.52,1.06-32.76-9.38-14.23-10.44-22.64-23.17-18.79-28.43Z"/>
      <path class="cls-2" d="m115.54,593.02c-2.46-.96-5.53-16.84.68-32.69,6.21-15.86,15.02-27,21.82-24.73,5.47,1.83,4.7,16.67-1.52,32.52-6.21,15.86-18.48,25.88-20.98,24.9Z"/>
    </g>
    <g>
      <path class="cls-2" d="m158.13,588.25c3-5.48,17.46-3.35,32.29,4.77,14.84,8.12,22.8,22.11,21.43,24.62-1.39,2.55-17.46,3.35-32.29-4.77-14.83-8.12-24.43-19.14-21.43-24.62Z"/>
      <path class="cls-2" d="m132.78,650.5c-2.46-.6-7.38-15.29-3.48-31.13,3.9-15.84,10.85-27.54,17.59-26.24,5.43,1.05,6.57,15.23,2.67,31.08-3.9,15.84-14.28,26.91-16.78,26.29Z"/>
    </g>
    <g>
      <path class="cls-2" d="m172.88,639.14c2.13-5.58,16.1-5.43,31.21.34,15.1,5.77,24.47,17.99,23.49,20.55-.99,2.6-16.1,5.43-31.21-.34-15.1-5.77-25.62-14.96-23.49-20.55Z"/>
      <path class="cls-2" d="m156.93,701.39c-2.4-.25-8.97-13.53-7.33-29.04,1.64-15.51,6.71-27.49,13.26-27.13,5.28.29,8.19,13.58,6.56,29.09-1.64,15.51-10.04,27.34-12.49,27.08Z"/>
    </g>
    <g>
      <path class="cls-2" d="m193.87,685.02c1.29-5.55,14.52-7.22,29.54-3.72,15.02,3.5,25.46,13.84,24.86,16.38-.6,2.58-14.52,7.22-29.54,3.72-15.02-3.5-26.16-10.83-24.86-16.38Z"/>
      <path class="cls-2" d="m186.84,745.93c-2.31.07-10.23-11.63-10.69-26.5-.46-14.87,2.78-26.86,9.03-27.37,5.03-.41,9.5,11.78,9.96,26.65.46,14.87-5.95,27.14-8.3,27.22Z"/>
    </g>
    <g>
      <path class="cls-2" d="m220.38,726.07c.52-5.4,12.79-8.64,27.4-7.24,14.62,1.4,25.77,9.84,25.53,12.31-.24,2.51-12.79,8.64-27.4,7.24-14.62-1.4-26.05-6.91-25.53-12.31Z"/>
      <path class="cls-2" d="m221.46,784.42c-2.17.36-11.12-9.68-13.43-23.65-2.31-13.98-.77-25.69,5.06-26.96,4.69-1.02,10.45,9.91,12.77,23.89,2.31,13.98-2.19,26.36-4.39,26.73Z"/>
    </g>
    <g>
      <path class="cls-2" d="m251.31,762.36c-.17-5.15,10.99-9.69,24.92-10.15,13.93-.46,25.46,6.14,25.53,8.5.08,2.39-10.99,9.69-24.92,10.15-13.93.45-25.37-3.35-25.53-8.5Z"/>
      <path class="cls-2" d="m259.4,817.18c-2,.6-11.65-7.76-15.52-20.64-3.87-12.88-3.84-24.1,1.49-26,4.3-1.53,11.05,8.06,14.92,20.94,3.87,12.88,1.14,25.09-.89,25.7Z"/>
    </g>
    <g>
      <path class="cls-2" d="m285.41,793.68c-.75-4.82,9.21-10.38,22.25-12.41,13.04-2.04,24.63,2.83,24.98,5.04.35,2.24-9.21,10.38-22.25,12.41-13.04,2.04-24.22-.22-24.98-5.04Z"/>
      <path class="cls-2" d="m299.34,844.26c-1.81.79-11.84-5.95-16.97-17.61-5.13-11.66-6.39-22.2-1.6-24.6,3.86-1.93,11.31,6.3,16.44,17.96,5.13,11.66,3.97,23.44,2.13,24.25Z"/>
    </g>
    <g>
      <path class="cls-2" d="m321.57,819.98c-1.24-4.43,7.49-10.74,19.49-14.08,12-3.35,23.4-.06,23.96,1.97.58,2.06-7.49,10.74-19.49,14.08-12,3.35-22.73,2.46-23.96-1.97Z"/>
      <path class="cls-2" d="m340.2,865.86c-1.61.94-11.75-4.27-17.84-14.63-6.09-10.36-8.44-20.11-4.21-22.89,3.4-2.24,11.3,4.66,17.39,15.02,6.09,10.36,6.3,21.54,4.67,22.5Z"/>
    </g>
    <g>
      <path class="cls-2" d="m358.74,841.29c-1.63-4.01,5.86-10.83,16.71-15.23,10.86-4.4,21.86-2.54,22.6-.71.76,1.87-5.86,10.83-16.71,15.23-10.86,4.4-20.98,4.72-22.6.71Z"/>
      <path class="cls-2" d="m381.03,882.18c-1.4,1.05-11.44-2.74-18.23-11.78-6.79-9.03-10.02-17.89-6.37-20.94,2.94-2.45,11.05,3.15,17.84,12.19,6.79,9.03,8.18,19.45,6.75,20.53Z"/>
    </g>
    <g>
      <path class="cls-2" d="m395.94,857.7c-1.94-3.56,4.31-10.7,13.95-15.94,9.64-5.24,20.08-4.67,20.96-3.04.9,1.66-4.31,10.7-13.95,15.94-9.64,5.24-19.03,6.6-20.96,3.04Z"/>
      <path class="cls-2" d="m420.98,893.4c-1.19,1.13-10.93-1.35-18.2-9.04-7.27-7.69-11.21-15.6-8.13-18.82,2.48-2.59,10.62,1.77,17.89,9.47,7.27,7.69,9.66,17.25,8.44,18.39Z"/>
    </g>
    <g>
      <path class="cls-2" d="m432.22,869.32c-2.18-3.09,2.84-10.37,11.2-16.27,8.36-5.89,18.09-6.49,19.08-5.08,1.01,1.44-2.84,10.37-11.2,16.27-8.36,5.89-16.91,8.17-19.08,5.08Z"/>
      <path class="cls-2" d="m459.27,899.68c-.98,1.17-10.27-.07-17.84-6.41-7.57-6.34-12.07-13.23-9.56-16.55,2.02-2.67,10.02.49,17.59,6.83,7.57,6.34,10.81,14.93,9.81,16.12Z"/>
    </g>
    <g>
      <path class="cls-2" d="m465.64,876.33c-2.36-2.59,1.4-9.87,8.4-16.27,7-6.4,15.88-8.09,16.96-6.9,1.1,1.2-1.4,9.87-8.4,16.27-7,6.4-14.6,9.49-16.96,6.9Z"/>
      <path class="cls-2" d="m494.08,901.1c-.77,1.19-9.46,1.14-17.16-3.81-7.7-4.95-12.65-10.76-10.73-14.11,1.54-2.69,9.28-.72,16.98,4.23,7.7,4.95,11.69,12.47,10.91,13.68Z"/>
    </g>
  </g>
  <g class="cls-4">
    <path class="cls-2" d="m883.28,530.25c-6.99,136.73-96.45,264.19-222.53,317.07-41.34,17.8-85.91,27.73-130.69,29.38,44.73-2.74,88.83-13.75,129.35-32.39,122.08-54.73,207.14-181,210.72-314.7,0,0,13.14.64,13.14.64h0Z"/>
  </g>
  <g class="cls-4">
    <path class="cls-2" d="m140.72,493.81c6.96-136.7,96.37-264.16,222.4-317.08,41.33-17.81,85.88-27.76,130.65-29.43-44.71,2.76-88.8,13.79-129.31,32.43-122.03,54.77-207.04,181.03-210.59,314.71,0,0-13.14-.63-13.14-.63h0Z"/>
  </g>
</svg>